<svg xmlns="http://www.w3.org/2000/svg" xmlns:xlink="http://www.w3.org/1999/xlink" width="500" zoomAndPan="magnify" viewBox="0 0 375 374.999991" height="500" preserveAspectRatio="xMidYMid meet" version="1.0"><defs><clipPath id="551185f291"><path d="M 14.5 55.152344 L 249 55.152344 L 249 319.902344 L 14.5 319.902344 Z M 14.5 55.152344 " clip-rule="nonzero"/></clipPath><clipPath id="187b9070f9"><path d="M 202 55.152344 L 360.25 55.152344 L 360.25 319.902344 L 202 319.902344 Z M 202 55.152344 " clip-rule="nonzero"/></clipPath><clipPath id="4aef12eb09"><path d="M 52 55.152344 L 360.25 55.152344 L 360.25 319.902344 L 52 319.902344 Z M 52 55.152344 " clip-rule="nonzero"/></clipPath><clipPath id="6c0b8cae8d"><path d="M 96 65 L 360.25 65 L 360.25 205 L 96 205 Z M 96 65 " clip-rule="nonzero"/></clipPath></defs><g clip-path="url(#551185f291)"><path fill="#122b49" d="M 54.261719 55.445312 L 56.851562 56.597656 L 56.851562 57.175781 L 57.589844 57.246094 C 58.808594 57.511719 59.546875 57.941406 60.597656 58.617188 L 61.464844 59.480469 C 62.273438 59.917969 63.101562 60.304688 63.933594 60.691406 L 64.722656 61.066406 L 65.476562 61.417969 L 66.074219 61.789062 L 66.359375 62.65625 C 66.917969 62.90625 66.917969 62.90625 67.585938 63.070312 C 68.730469 63.417969 69.53125 63.808594 70.394531 64.671875 L 70.394531 65.25 L 70.988281 65.339844 C 72.632812 65.726562 73.847656 66.375 75.203125 67.359375 C 76.53125 68.324219 77.90625 69.042969 79.394531 69.730469 C 80.234375 70.175781 80.898438 70.710938 81.632812 71.304688 C 82.546875 71.667969 82.546875 71.667969 83.359375 71.882812 L 83.359375 72.460938 L 84.800781 72.75 L 85.089844 73.613281 C 86.078125 73.949219 86.078125 73.949219 87.105469 74.191406 L 87.683594 74.476562 L 87.683594 75.054688 L 89.121094 75.34375 L 89.121094 75.921875 L 89.773438 75.871094 C 90.5625 75.921875 90.5625 75.921875 91.136719 76.257812 L 91.679688 76.714844 C 93.058594 77.8125 94.488281 78.613281 96.074219 79.382812 C 96.777344 79.726562 97.269531 80.023438 97.875 80.535156 C 98.613281 81.097656 99.191406 81.351562 100.054688 81.671875 C 101.367188 82.167969 102.246094 82.710938 103.242188 83.707031 L 103.242188 84.285156 L 104.035156 84.375 C 105.011719 84.582031 105.363281 84.820312 106.121094 85.4375 C 106.695312 85.730469 107.273438 86.019531 107.851562 86.300781 C 108.71875 86.777344 109.582031 87.257812 110.445312 87.746094 L 110.445312 88.320312 L 111.597656 88.320312 L 111.597656 88.898438 L 112.75 88.898438 L 112.75 89.476562 L 113.324219 89.476562 L 113.324219 90.050781 L 115.054688 90.339844 L 115.054688 90.917969 L 115.683594 91.167969 L 117.933594 92.070312 L 117.933594 92.648438 L 118.386719 92.738281 C 119.792969 93.132812 121.171875 93.664062 122.257812 94.667969 L 122.257812 95.242188 L 124.273438 95.820312 L 124.273438 96.394531 L 124.996094 96.613281 C 126.152344 97.027344 127.21875 97.558594 128.308594 98.125 L 128.308594 98.703125 L 128.933594 98.792969 C 129.839844 99.015625 130.484375 99.355469 131.277344 99.839844 L 132.050781 100.296875 L 132.628906 100.722656 L 132.628906 101.300781 L 133.441406 101.390625 L 134.359375 101.585938 C 134.808594 102.003906 134.808594 102.003906 135.222656 102.453125 L 135.980469 102.742188 L 136.664062 103.03125 L 136.953125 103.894531 L 137.707031 103.964844 C 138.828125 104.214844 139.511719 104.632812 140.410156 105.335938 L 140.410156 105.914062 L 141.21875 106.003906 L 142.136719 106.203125 C 142.433594 106.484375 142.71875 106.773438 143.003906 107.066406 C 143.488281 107.28125 143.972656 107.496094 144.464844 107.695312 C 145.367188 108.082031 146.191406 108.585938 147.035156 109.085938 L 147.035156 109.664062 L 148.765625 109.949219 L 148.765625 110.527344 L 149.289062 110.617188 C 149.917969 110.816406 149.917969 110.816406 150.332031 111.25 C 150.777344 111.746094 150.777344 111.746094 151.554688 111.878906 L 152.222656 111.96875 L 152.222656 112.546875 L 152.941406 112.746094 C 154.511719 113.332031 155.832031 114.273438 157.210938 115.214844 C 157.964844 115.753906 157.964844 115.753906 158.847656 116.007812 L 158.847656 116.585938 L 161.441406 117.449219 L 161.441406 118.3125 L 162.378906 118.40625 C 163.460938 118.601562 163.460938 118.601562 164.160156 119.015625 L 164.613281 119.46875 L 164.613281 120.042969 L 165.089844 120.136719 C 165.910156 120.375 166.585938 120.746094 167.332031 121.164062 L 168.140625 121.609375 C 168.890625 122.039062 169.632812 122.484375 170.375 122.929688 C 170.734375 123.128906 171.09375 123.328125 171.453125 123.523438 L 172.390625 124.082031 L 172.679688 124.660156 L 173.722656 125.019531 C 174.648438 125.34375 175.257812 125.703125 175.976562 126.371094 C 177.050781 127.371094 178.238281 127.882812 179.59375 128.40625 L 179.59375 128.984375 L 180.171875 128.984375 L 180.171875 129.5625 L 180.871094 129.617188 C 182.234375 129.925781 183.304688 130.574219 184.492188 131.292969 L 184.492188 131.867188 L 185.175781 132.066406 C 186.542969 132.5625 187.8125 133.21875 189.101562 133.886719 L 189.101562 134.464844 L 191.121094 135.042969 L 191.121094 135.617188 L 191.929688 135.851562 C 192.839844 136.191406 193.058594 136.40625 193.710938 137.058594 C 194.382812 137.351562 195.054688 137.636719 195.730469 137.925781 L 196.015625 138.5 C 196.683594 138.804688 197.355469 139.09375 198.035156 139.367188 L 198.035156 139.945312 L 199.007812 140.035156 L 200.050781 140.230469 L 200.628906 141.097656 C 201.289062 141.40625 201.960938 141.695312 202.644531 141.960938 L 202.644531 142.539062 L 203.417969 142.628906 C 204.40625 142.835938 204.992188 143.117188 205.8125 143.691406 L 206.679688 144.558594 L 207.542969 144.847656 L 207.542969 145.421875 L 208.984375 145.710938 L 208.984375 146.289062 L 209.613281 146.359375 C 210.421875 146.578125 210.421875 146.578125 211.085938 147.113281 C 211.894531 147.753906 212.679688 148.171875 213.609375 148.613281 C 214.65625 149.109375 215.566406 149.609375 216.472656 150.324219 C 217.445312 150.90625 218.425781 151.445312 219.425781 151.972656 L 220.4375 152.507812 L 221.402344 153.011719 C 222.101562 153.421875 222.605469 153.734375 223.101562 154.363281 L 223.101562 154.941406 L 223.863281 155.035156 C 224.863281 155.234375 225.5625 155.546875 226.449219 156.039062 L 227.253906 156.476562 C 228 156.960938 228 156.960938 228.597656 157.566406 C 229.175781 158.136719 229.554688 158.328125 230.320312 158.5625 C 230.996094 158.773438 231.414062 158.945312 231.960938 159.402344 L 232.320312 159.84375 L 232.320312 160.417969 L 233.761719 160.417969 L 233.960938 160.980469 L 234.339844 161.574219 C 234.816406 161.671875 235.296875 161.765625 235.777344 161.863281 C 236.304688 162.113281 236.820312 162.386719 237.328125 162.671875 L 238.160156 163.140625 C 238.417969 163.289062 238.679688 163.4375 238.949219 163.59375 L 239.601562 163.960938 C 240.058594 164.222656 240.511719 164.484375 240.964844 164.746094 L 240.964844 165.324219 L 241.578125 165.394531 C 242.601562 165.664062 243.253906 166.167969 244.132812 166.765625 C 245.003906 167.28125 245.886719 167.765625 246.769531 168.257812 C 247.507812 168.675781 248.140625 169.042969 248.746094 169.648438 L 248.746094 170.511719 L 248.167969 170.511719 L 248.167969 171.089844 L 247.304688 171.089844 L 247.304688 171.667969 C 246.621094 172.136719 246.621094 172.136719 245.863281 172.53125 L 245.285156 172.53125 L 245.285156 173.109375 L 244.710938 173.109375 L 244.710938 173.6875 C 244.128906 174.382812 243.53125 174.785156 242.695312 175.128906 L 241.828125 175.128906 L 241.828125 175.703125 L 240.964844 175.703125 L 240.738281 176.222656 C 239.574219 178.335938 236.863281 179.867188 234.914062 181.183594 L 234.261719 181.503906 L 233.761719 181.761719 L 233.472656 182.335938 L 232.03125 183.203125 L 231.746094 183.78125 C 231.269531 184.074219 230.789062 184.363281 230.304688 184.644531 C 229.304688 185.304688 228.40625 185.964844 227.566406 186.824219 C 226.964844 187.414062 226.554688 187.71875 225.839844 188.105469 C 224.84375 188.644531 224.183594 189.3125 223.390625 190.125 C 220.5625 192.546875 217.472656 194.714844 214.335938 196.710938 C 213.835938 197.027344 213.835938 197.027344 213.59375 197.621094 L 212.730469 197.910156 C 212.242188 198.386719 211.761719 198.867188 211.289062 199.351562 C 210.675781 199.875 210.675781 199.875 210.136719 200.21875 L 209.269531 200.21875 L 209.226562 200.726562 L 208.984375 201.371094 C 208.28125 201.925781 208.28125 201.925781 207.417969 202.453125 L 206.554688 202.988281 C 205.8125 203.390625 205.8125 203.390625 205.238281 203.390625 L 205.039062 203.914062 C 204.660156 204.542969 204.660156 204.542969 203.941406 205.046875 C 203.21875 205.410156 203.21875 205.410156 202.644531 205.410156 L 202.644531 205.984375 C 202.105469 206.382812 201.550781 206.761719 200.988281 207.121094 C 199.742188 207.921875 199.742188 207.921875 198.550781 208.800781 L 198.035156 209.160156 L 197.167969 209.160156 L 196.882812 210.023438 L 195.730469 210.3125 L 195.441406 211.175781 L 194 211.753906 L 193.710938 212.621094 C 193.292969 212.96875 193.292969 212.96875 192.777344 213.304688 C 192.082031 213.773438 191.554688 214.199219 190.957031 214.800781 C 190.191406 215.566406 189.480469 216.140625 188.527344 216.65625 C 187.804688 216.675781 187.804688 216.675781 187.085938 216.367188 C 186.683594 216.054688 186.289062 215.738281 185.90625 215.402344 C 184.121094 213.863281 182.199219 212.492188 180.1875 211.265625 C 179.300781 210.71875 178.589844 210.242188 177.957031 209.410156 C 177.351562 208.660156 177.035156 208.386719 176.242188 207.925781 C 174.949219 207.140625 173.804688 206.230469 172.644531 205.265625 L 172.050781 204.78125 C 171.324219 204.183594 170.597656 203.578125 169.878906 202.96875 C 169.183594 202.375 168.570312 201.910156 167.746094 201.5 C 166.890625 201.070312 166.433594 200.601562 165.765625 199.929688 L 164.917969 199.515625 C 163.652344 198.867188 162.855469 197.910156 161.910156 196.867188 C 161.175781 196.125 161.175781 196.125 160.144531 195.75 C 159.03125 195.269531 158.527344 194.746094 157.695312 193.875 C 157.089844 193.414062 156.472656 192.964844 155.84375 192.527344 L 155.390625 192.144531 L 155.390625 191.566406 L 154.78125 191.367188 C 153.949219 190.988281 153.367188 190.523438 152.6875 189.921875 C 152.191406 189.523438 151.6875 189.234375 151.125 188.933594 L 150.207031 188.394531 L 149.917969 187.527344 L 149.339844 187.527344 L 149.339844 186.953125 L 148.714844 186.714844 C 147.894531 186.375 147.152344 185.980469 146.386719 185.527344 L 145.628906 185.085938 L 145.019531 184.644531 L 144.730469 183.78125 C 144.15625 183.429688 144.15625 183.429688 143.578125 183.203125 L 143.578125 182.625 L 143.019531 182.535156 L 142.425781 182.335938 L 142.136719 181.472656 L 141.453125 181.382812 L 140.699219 181.183594 L 140.121094 180.320312 C 139.738281 180.121094 139.355469 179.929688 138.96875 179.742188 L 138.679688 179.164062 L 137.90625 178.785156 C 136.871094 178.257812 136.105469 177.609375 135.222656 176.859375 L 134.484375 176.425781 C 133.636719 175.90625 133.042969 175.253906 132.339844 174.550781 C 131.324219 173.734375 130.269531 172.96875 129.171875 172.261719 C 128.253906 171.632812 127.453125 170.933594 126.628906 170.1875 C 125.753906 169.429688 124.828125 168.746094 123.894531 168.054688 L 123.410156 167.628906 L 123.410156 167.054688 L 122.90625 166.957031 C 122.179688 166.742188 121.691406 166.4375 121.070312 166.007812 L 120.386719 165.539062 L 119.664062 165.035156 L 118.90625 164.523438 C 117.589844 163.621094 116.457031 162.71875 115.34375 161.574219 C 114.835938 161.195312 114.324219 160.832031 113.800781 160.480469 C 113.304688 160.113281 112.898438 159.703125 112.460938 159.265625 L 111.886719 158.976562 L 111.886719 158.402344 L 111.019531 158.113281 L 110.550781 157.609375 C 109.917969 157.007812 109.40625 156.679688 108.644531 156.273438 C 106.808594 155.289062 105.285156 154.101562 103.816406 152.632812 L 102.953125 152.054688 C 102.089844 151.480469 102.089844 151.480469 101.554688 150.929688 C 100.875 150.265625 100.179688 149.8125 99.371094 149.316406 C 96.664062 147.660156 96.664062 147.660156 95.75 146.289062 C 95.273438 145.972656 95.273438 145.972656 94.742188 145.710938 C 93.898438 145.28125 93.714844 145.109375 93.15625 144.269531 L 92.292969 143.980469 L 92.292969 143.40625 L 91.796875 143.167969 C 91.109375 142.8125 90.472656 142.410156 89.824219 141.980469 L 89.15625 141.539062 C 88.546875 141.097656 88.546875 141.097656 88.136719 140.679688 C 87.695312 140.242188 87.246094 139.886719 86.742188 139.523438 L 86.199219 139.128906 L 85.628906 138.71875 C 84.15625 137.644531 82.695312 136.5625 81.265625 135.425781 C 80.828125 135.085938 80.367188 134.773438 79.902344 134.464844 L 79.902344 133.886719 L 79.328125 133.714844 C 78.113281 133.148438 77.179688 132.316406 76.15625 131.453125 C 74.636719 130.164062 74.636719 130.164062 72.988281 129.046875 L 72.410156 128.695312 L 72.410156 128.121094 L 71.910156 127.878906 C 69.945312 126.863281 68.226562 125.480469 66.523438 124.089844 C 65.5625 123.328125 64.5625 122.640625 63.546875 121.960938 C 62.878906 121.46875 62.332031 120.921875 61.75 120.332031 L 60.957031 119.808594 C 60.007812 119.167969 59.191406 118.460938 58.335938 117.699219 C 57.492188 116.964844 56.613281 116.292969 55.730469 115.613281 C 55.207031 115.203125 54.691406 114.78125 54.1875 114.347656 C 53.464844 113.757812 52.753906 113.3125 51.953125 112.835938 C 50.238281 111.660156 48.605469 110.398438 47.019531 109.050781 C 45.457031 107.730469 43.859375 106.558594 42.082031 105.539062 C 41.507812 105.203125 40.957031 104.882812 40.429688 104.472656 C 40.085938 103.695312 40.085938 103.695312 39.855469 103.03125 C 39.171875 102.664062 39.171875 102.664062 38.414062 102.453125 C 37.78125 102.183594 37.78125 102.183594 37.261719 101.875 L 36.683594 101.011719 L 35.855469 100.613281 C 34.871094 100.101562 34.464844 99.574219 33.804688 98.703125 L 32.9375 98.414062 L 32.9375 97.839844 L 32.46875 97.785156 C 31.679688 97.511719 31.171875 97.074219 30.546875 96.527344 C 30.015625 96.074219 29.464844 95.660156 28.90625 95.242188 C 28.195312 94.71875 27.515625 94.183594 26.851562 93.601562 C 26.035156 92.945312 25.246094 92.5 24.292969 92.070312 L 24.292969 91.492188 L 23.59375 91.242188 L 22.855469 90.917969 L 22.566406 90.339844 L 21.414062 90.339844 C 22.0625 92.007812 22.6875 93.132812 24.007812 94.378906 L 24.007812 95.242188 L 24.582031 95.242188 C 24.839844 95.640625 25.09375 96.039062 25.347656 96.4375 C 25.984375 97.3125 26.785156 98.019531 27.578125 98.753906 C 27.730469 98.925781 27.882812 99.101562 28.039062 99.28125 L 28.039062 100.144531 C 28.214844 100.21875 28.386719 100.296875 28.5625 100.375 C 29.234375 100.746094 29.566406 101.097656 30.039062 101.695312 C 30.742188 102.554688 31.492188 103.203125 32.363281 103.894531 L 32.363281 104.472656 L 32.902344 104.6875 L 33.515625 105.046875 L 34.089844 106.203125 C 34.648438 106.515625 34.648438 106.515625 35.242188 106.777344 C 35.746094 107.210938 35.746094 107.210938 36.109375 107.644531 L 36.109375 108.21875 L 36.609375 108.457031 C 37.277344 108.808594 37.871094 109.199219 38.484375 109.644531 L 39.101562 110.085938 L 39.566406 110.527344 L 39.566406 111.394531 L 40.070312 111.632812 C 41.84375 112.558594 43.289062 113.816406 44.464844 115.429688 L 44.464844 116.007812 L 45.039062 116.007812 L 45.039062 116.585938 L 45.742188 116.820312 L 46.480469 117.160156 L 46.769531 118.027344 L 47.632812 118.027344 L 47.632812 118.601562 L 48.15625 118.691406 C 48.785156 118.890625 48.785156 118.890625 49.289062 119.304688 L 49.648438 119.757812 L 49.648438 120.332031 L 50.515625 120.621094 L 50.515625 121.199219 L 51.378906 121.488281 L 51.378906 122.0625 L 51.902344 122.296875 C 52.53125 122.640625 52.9375 122.957031 53.394531 123.503906 L 53.394531 124.082031 L 53.917969 124.15625 C 54.546875 124.371094 54.546875 124.371094 55.050781 124.929688 L 55.414062 125.523438 L 55.414062 126.101562 L 55.917969 126.351562 L 57.71875 127.253906 L 57.71875 127.832031 L 58.582031 128.121094 L 58.582031 128.695312 L 59.1875 128.882812 C 60.269531 129.390625 61.003906 130.089844 61.859375 130.914062 L 62.355469 131.382812 C 62.828125 131.832031 63.300781 132.28125 63.769531 132.734375 L 64.460938 133.390625 C 64.914062 133.832031 65.351562 134.289062 65.785156 134.753906 L 65.785156 135.328125 L 66.277344 135.546875 C 67.050781 135.96875 67.648438 136.472656 68.304688 137.058594 L 69.003906 137.671875 L 69.53125 138.214844 L 69.53125 138.789062 L 70.105469 138.789062 L 70.105469 139.367188 L 70.898438 139.566406 C 71.835938 139.945312 71.835938 139.945312 72.519531 140.664062 L 72.988281 141.386719 L 72.988281 141.960938 L 73.65625 142.214844 C 74.429688 142.539062 74.429688 142.539062 75.292969 143.117188 L 75.292969 143.691406 L 76.15625 143.980469 C 76.453125 144.265625 76.738281 144.550781 77.023438 144.847656 L 77.597656 145.136719 L 77.597656 145.710938 L 78.15625 145.945312 L 78.75 146.289062 L 79.039062 147.152344 C 79.617188 147.363281 79.617188 147.363281 80.191406 147.441406 C 80.230469 154.199219 80.265625 160.953125 80.304688 167.710938 C 80.320312 170.851562 80.339844 173.992188 80.355469 177.132812 C 80.5 202.128906 80.527344 227.121094 80.351562 252.117188 C 80.332031 254.714844 80.316406 257.308594 80.296875 259.90625 C 80.265625 265.195312 80.226562 270.488281 80.191406 275.777344 L 79.652344 276.070312 L 78.945312 276.460938 L 78.242188 276.84375 C 77.484375 277.285156 76.832031 277.8125 76.15625 278.371094 C 75.679688 278.664062 75.199219 278.953125 74.714844 279.238281 L 73.984375 279.679688 L 73.257812 280.121094 L 72.527344 280.5625 C 71.925781 280.914062 71.3125 281.242188 70.683594 281.546875 L 70.683594 282.121094 C 70.179688 282.476562 69.664062 282.8125 69.132812 283.132812 C 67.964844 283.835938 67.964844 283.835938 66.9375 284.71875 L 66.074219 284.71875 L 66.074219 285.292969 L 65.207031 285.292969 L 64.921875 286.160156 C 64.1875 286.644531 64.1875 286.644531 63.265625 287.152344 C 62.335938 287.664062 61.503906 288.144531 60.683594 288.820312 L 60.023438 289.332031 L 59.15625 289.332031 L 59.15625 289.910156 C 58.683594 290.28125 58.683594 290.28125 58.058594 290.664062 L 57.441406 291.054688 C 56.851562 291.351562 56.851562 291.351562 55.988281 291.351562 L 55.988281 291.925781 C 55.589844 292.269531 55.589844 292.269531 55.03125 292.648438 L 54.421875 293.0625 L 53.773438 293.496094 L 53.144531 293.925781 C 52.28125 294.507812 51.425781 295.074219 50.527344 295.597656 L 49.9375 295.964844 L 49.648438 296.542969 C 48.710938 297.0625 47.828125 297.492188 46.769531 297.695312 L 46.769531 298.273438 C 46.207031 298.675781 45.628906 299.058594 45.039062 299.425781 L 44.265625 299.929688 C 43.597656 300.289062 43.597656 300.289062 42.734375 300.289062 L 42.734375 300.867188 L 41.871094 301.15625 C 41.480469 301.535156 41.097656 301.917969 40.71875 302.308594 C 40.105469 302.8125 40.105469 302.8125 39.566406 303.175781 L 38.988281 303.175781 L 38.699219 304.039062 C 37.984375 304.546875 37.984375 304.546875 37.042969 305.105469 L 36.015625 305.71875 L 35.484375 306.035156 C 33.226562 307.371094 31.015625 308.746094 28.910156 310.3125 L 28.328125 310.671875 L 27.464844 310.671875 L 27.175781 311.539062 C 26.328125 312.167969 25.503906 312.664062 24.546875 313.105469 C 23.617188 313.613281 23.21875 314.175781 22.566406 315 C 22.089844 315.203125 21.609375 315.394531 21.125 315.574219 L 20.59375 316.117188 C 19.949219 316.75 19.335938 317.148438 18.550781 317.59375 C 17.726562 318.074219 17.007812 318.527344 16.261719 319.125 C 15.652344 319.613281 15.652344 319.613281 14.5 319.902344 L 14.5 83.996094 L 15.9375 83.996094 L 16.226562 83.128906 L 17.378906 82.554688 C 17.671875 82.242188 17.671875 82.242188 17.972656 81.921875 C 18.90625 80.945312 20.046875 80.308594 21.1875 79.601562 C 22.097656 79.023438 22.949219 78.390625 23.800781 77.730469 C 24.292969 77.363281 24.292969 77.363281 25.085938 76.894531 C 25.753906 76.523438 25.753906 76.523438 26.265625 75.957031 C 26.902344 75.328125 27.554688 74.839844 28.292969 74.335938 L 29.054688 73.8125 L 29.769531 73.324219 L 30.320312 72.9375 C 30.707031 72.671875 31.097656 72.417969 31.496094 72.171875 L 32.074219 72.171875 L 32.304688 71.632812 C 32.652344 71.019531 32.652344 71.019531 33.570312 70.421875 L 34.1875 70.058594 C 35.1875 69.429688 36.132812 68.730469 37.082031 68.027344 C 38.292969 67.125 39.507812 66.234375 40.753906 65.375 C 41.882812 64.59375 42.96875 63.765625 44.050781 62.925781 C 45.285156 61.964844 46.535156 61.054688 47.847656 60.203125 C 48.898438 59.503906 49.910156 58.746094 50.925781 57.992188 C 51.636719 57.484375 52.34375 57.019531 53.105469 56.597656 L 53.683594 56.597656 Z M 54.261719 55.445312 " fill-opacity="1" fill-rule="nonzero"/></g><g clip-path="url(#187b9070f9)"><path fill="#122b49" d="M 321.421875 55.625 C 322.214844 55.734375 322.214844 55.734375 323.042969 56.363281 L 323.476562 56.761719 C 323.976562 57.203125 324.496094 57.574219 325.042969 57.949219 C 325.960938 58.617188 325.960938 58.617188 326.25 59.195312 C 326.621094 59.402344 327 59.601562 327.382812 59.789062 C 328.800781 60.546875 329.875 61.53125 331.039062 62.628906 C 331.890625 63.378906 332.730469 63.878906 333.742188 64.382812 L 333.742188 64.960938 L 334.367188 65.183594 C 335.25 65.566406 335.925781 66.039062 336.695312 66.621094 C 337.917969 67.539062 339.183594 68.394531 340.488281 69.195312 L 340.945312 69.574219 L 340.945312 70.441406 L 341.445312 70.542969 C 342.152344 70.746094 342.679688 71.027344 343.304688 71.414062 L 343.910156 71.78125 L 344.402344 72.171875 L 344.691406 73.035156 L 346.128906 73.613281 L 346.417969 74.476562 C 346.953125 74.65625 346.953125 74.65625 347.570312 74.765625 C 348.289062 75.058594 348.703125 75.324219 349.246094 75.886719 C 349.902344 76.523438 350.539062 76.929688 351.335938 77.378906 C 352.207031 77.875 352.976562 78.3125 353.621094 79.09375 L 353.621094 79.667969 L 354.378906 79.867188 C 355.5 80.304688 356.183594 80.886719 357.078125 81.6875 C 357.984375 82.441406 358.945312 83.113281 359.960938 83.707031 L 360.25 83.996094 C 360.277344 84.507812 360.285156 85.023438 360.285156 85.539062 L 360.285156 87.707031 C 360.285156 88.109375 360.285156 88.507812 360.285156 88.910156 C 360.285156 90.023438 360.285156 91.140625 360.285156 92.253906 C 360.28125 93.460938 360.285156 94.667969 360.285156 95.878906 C 360.285156 97.996094 360.285156 100.117188 360.28125 102.238281 C 360.28125 105.394531 360.28125 108.546875 360.28125 111.699219 C 360.28125 117 360.28125 122.304688 360.277344 127.609375 C 360.277344 134.851562 360.277344 142.089844 360.277344 149.328125 C 360.273438 161.070312 360.273438 172.816406 360.269531 184.5625 C 360.265625 195.972656 360.265625 207.386719 360.265625 218.796875 L 360.265625 219.863281 L 360.261719 252.03125 L 360.261719 253.03125 C 360.257812 275.128906 360.253906 297.226562 360.25 319.324219 C 359.058594 318.828125 358.03125 318.386719 357.042969 317.558594 C 355.945312 316.671875 354.816406 315.839844 353.65625 315.035156 L 353.167969 314.691406 C 352.457031 314.199219 351.855469 313.832031 351.027344 313.558594 L 350.164062 312.691406 C 349.402344 312.199219 348.640625 311.789062 347.824219 311.394531 C 347.0625 310.996094 346.71875 310.6875 346.128906 310.097656 C 345.714844 309.789062 345.296875 309.488281 344.871094 309.195312 L 344.089844 308.65625 L 343.25 308.078125 L 342.398438 307.480469 C 340.417969 306.09375 338.402344 304.753906 336.359375 303.457031 C 335.347656 302.808594 334.367188 302.140625 333.414062 301.410156 C 332.503906 300.71875 331.578125 300.136719 330.570312 299.589844 C 329.285156 298.855469 328.234375 298.074219 327.15625 297.070312 C 325.59375 295.730469 323.792969 294.53125 321.929688 293.65625 L 321.929688 293.082031 L 321.15625 292.847656 C 320.238281 292.519531 319.535156 292.136719 318.722656 291.601562 L 317.902344 291.0625 L 317.03125 290.484375 L 316.085938 289.878906 L 315.15625 289.277344 L 314.300781 288.726562 C 313.574219 288.179688 313.574219 288.179688 313.125 287.574219 C 312.613281 286.898438 312.164062 286.699219 311.394531 286.359375 C 309.777344 285.589844 308.386719 284.617188 306.945312 283.5625 L 305.828125 282.789062 C 304.929688 282.121094 304.929688 282.121094 304.382812 281.554688 C 303.757812 280.949219 303.160156 280.566406 302.40625 280.140625 C 301.46875 279.59375 300.59375 279.03125 299.742188 278.355469 C 298.667969 277.515625 297.523438 276.945312 296.285156 276.375 L 295.707031 276.066406 C 295.285156 275.214844 295.378906 274.355469 295.378906 273.421875 L 295.378906 272.765625 C 295.375 272.035156 295.375 271.300781 295.375 270.566406 C 295.371094 270.039062 295.371094 269.511719 295.371094 268.984375 C 295.367188 267.53125 295.363281 266.074219 295.363281 264.617188 C 295.359375 263.371094 295.355469 262.125 295.355469 260.875 C 295.34375 256.765625 295.339844 252.65625 295.332031 248.546875 L 295.328125 245.339844 C 295.316406 237.164062 295.308594 228.992188 295.304688 220.816406 L 295.304688 220.238281 C 295.296875 214.042969 295.289062 207.84375 295.273438 201.648438 C 295.257812 195.101562 295.25 188.550781 295.246094 182.003906 C 295.246094 178.433594 295.242188 174.863281 295.230469 171.289062 C 295.21875 168.25 295.214844 165.210938 295.21875 162.171875 C 295.21875 160.617188 295.21875 159.066406 295.210938 157.515625 C 295.203125 156.09375 295.203125 154.675781 295.210938 153.253906 C 295.210938 152.738281 295.207031 152.226562 295.203125 151.710938 C 295.195312 151.011719 295.199219 150.316406 295.207031 149.617188 L 295.191406 149.007812 C 295.207031 148.441406 295.207031 148.441406 295.421875 147.441406 C 296.113281 146.628906 296.96875 146.105469 297.886719 145.566406 C 298.738281 145.042969 299.328125 144.40625 300.03125 143.691406 C 300.871094 142.898438 301.722656 142.117188 302.574219 141.332031 C 303.570312 140.410156 304.546875 139.464844 305.503906 138.5 C 306.945312 137.152344 308.433594 135.859375 309.972656 134.625 C 311.035156 133.769531 312.042969 132.847656 312.996094 131.867188 C 316.40625 128.378906 316.40625 128.378906 318.238281 127.542969 L 318.757812 127.253906 C 318.960938 126.875 319.152344 126.492188 319.335938 126.101562 C 319.78125 125.660156 319.78125 125.660156 320.289062 125.253906 C 320.917969 124.734375 321.496094 124.226562 322.070312 123.648438 C 322.777344 122.945312 323.511719 122.304688 324.277344 121.667969 C 324.964844 121.058594 325.601562 120.40625 326.25 119.757812 C 326.757812 119.285156 327.265625 118.816406 327.78125 118.351562 L 328.621094 117.589844 C 329.28125 116.996094 329.953125 116.40625 330.625 115.828125 C 331.421875 115.136719 332.160156 114.417969 332.894531 113.664062 C 333.878906 112.667969 334.867188 111.859375 336.046875 111.105469 L 336.621094 111.105469 L 336.824219 110.609375 C 337.292969 109.785156 337.867188 109.292969 338.585938 108.671875 C 339.597656 107.789062 340.578125 106.871094 341.519531 105.914062 L 342.429688 105.003906 L 342.90625 104.523438 C 348.148438 99.28125 348.148438 99.28125 348.757812 98.703125 C 349.335938 98.128906 349.335938 98.128906 349.769531 97.332031 L 350.164062 96.683594 L 350.742188 96.683594 L 350.9375 96.070312 C 351.414062 95.027344 351.976562 94.351562 352.757812 93.511719 L 353.332031 93.511719 L 354.199219 90.917969 C 353.15625 91.039062 352.417969 91.34375 351.5625 91.945312 C 350.863281 92.484375 350.191406 93.054688 349.515625 93.621094 C 348.480469 94.484375 347.460938 95.222656 346.292969 95.890625 C 345.195312 96.519531 344.601562 97.125 343.824219 98.125 C 342.765625 98.9375 341.707031 99.683594 340.449219 100.140625 L 339.792969 100.433594 L 339.503906 101.300781 C 339.027344 101.5 338.546875 101.691406 338.0625 101.875 C 337.769531 102.160156 337.484375 102.449219 337.199219 102.742188 C 336.78125 103.070312 336.363281 103.394531 335.9375 103.714844 C 335.175781 104.300781 334.496094 104.871094 333.8125 105.554688 C 333.152344 106.214844 332.523438 106.589844 331.722656 107.066406 C 331.234375 107.464844 330.757812 107.882812 330.28125 108.300781 C 328.214844 110.089844 326.027344 111.699219 323.796875 113.273438 C 323.144531 113.738281 322.492188 114.207031 321.851562 114.683594 L 320.992188 115.324219 L 320.230469 115.890625 L 319.621094 116.296875 L 319.046875 116.296875 L 319.046875 116.871094 C 318.574219 117.214844 318.574219 117.214844 317.949219 117.574219 C 317.140625 118.046875 316.527344 118.507812 315.878906 119.179688 C 315.449219 119.53125 315.015625 119.882812 314.582031 120.226562 C 313.222656 121.300781 311.886719 122.402344 310.558594 123.511719 C 309.859375 124.058594 309.167969 124.527344 308.386719 124.949219 L 307.808594 124.949219 L 307.808594 125.523438 C 307.332031 125.886719 307.332031 125.886719 306.675781 126.300781 C 305.023438 127.367188 303.386719 128.488281 302.011719 129.902344 L 301.472656 130.425781 L 300.859375 130.570312 L 300.320312 130.714844 L 300.066406 131.257812 L 299.742188 131.867188 C 299.167969 132.160156 298.59375 132.449219 298.011719 132.734375 C 297.527344 133.207031 297.046875 133.6875 296.574219 134.175781 C 296.097656 134.472656 295.617188 134.761719 295.132812 135.042969 L 294.394531 135.652344 C 293.691406 136.195312 293.691406 136.195312 293.0625 136.339844 L 292.539062 136.484375 L 292.269531 137.023438 L 291.964844 137.636719 C 291.492188 137.9375 291.011719 138.226562 290.523438 138.5 C 290.132812 138.773438 289.75 139.050781 289.371094 139.332031 L 288.8125 139.742188 C 288.183594 140.242188 288.183594 140.242188 287.542969 140.925781 C 286.722656 141.726562 285.847656 142.382812 284.902344 143.027344 L 284.417969 143.367188 C 283.703125 143.859375 283.046875 144.265625 282.230469 144.5625 L 281.589844 144.847656 C 281.265625 145.40625 281.265625 145.40625 281.015625 146 C 280.566406 146.410156 280.566406 146.410156 280.023438 146.792969 L 279.40625 147.238281 L 278.710938 147.730469 C 276.667969 149.140625 276.667969 149.140625 274.820312 150.777344 C 273.675781 151.890625 272.320312 152.71875 270.929688 153.5 L 270.355469 153.5 L 270.171875 153.984375 C 269.625 154.910156 268.902344 155.449219 268.046875 156.09375 L 267.183594 156.382812 L 266.519531 157.050781 C 265.730469 157.839844 264.945312 158.363281 264.015625 158.976562 C 263.550781 159.347656 263.089844 159.71875 262.628906 160.09375 C 261.316406 161.15625 259.960938 162.101562 258.539062 163.015625 L 257.675781 163.59375 C 256.234375 163.464844 255.023438 163.070312 253.816406 162.269531 L 253.121094 161.753906 C 252.046875 160.980469 250.992188 160.371094 249.796875 159.8125 C 249.320312 159.554688 249.320312 159.554688 248.78125 158.996094 C 247.789062 158.03125 246.53125 157.539062 245.285156 156.960938 L 245.285156 156.382812 L 244.511719 156.308594 C 243.417969 156.0625 242.964844 155.660156 242.117188 154.941406 C 241.542969 154.648438 240.964844 154.359375 240.386719 154.074219 C 239.386719 153.523438 238.398438 152.953125 237.410156 152.386719 C 237.113281 152.21875 237.113281 152.21875 236.808594 152.042969 L 236.273438 151.738281 C 235.730469 151.4375 235.730469 151.4375 234.914062 151.191406 L 234.410156 150.667969 C 233.757812 150.03125 233.09375 149.625 232.292969 149.191406 C 231.730469 148.875 231.191406 148.53125 230.644531 148.179688 C 229.523438 147.464844 228.347656 146.902344 227.136719 146.347656 L 226.558594 146 L 226.269531 145.136719 C 225.65625 144.835938 225.65625 144.835938 224.828125 144.558594 C 224.382812 144.375 223.941406 144.191406 223.496094 144 L 222.835938 143.722656 C 222.21875 143.394531 221.859375 143.035156 221.371094 142.539062 C 220.816406 142.222656 220.816406 142.222656 220.21875 141.960938 C 219.597656 141.679688 219.140625 141.460938 218.664062 140.96875 C 218.1875 140.503906 217.769531 140.253906 217.171875 139.960938 L 216.574219 139.667969 L 215.953125 139.367188 L 215.339844 139.066406 C 214.441406 138.625 213.539062 138.191406 212.636719 137.761719 C 211.933594 137.386719 211.542969 137.046875 211 136.484375 C 210.425781 136.183594 210.425781 136.183594 209.792969 135.941406 C 208.496094 135.390625 207.207031 134.773438 206.101562 133.886719 L 206.101562 133.3125 C 205.90625 133.257812 205.710938 133.207031 205.511719 133.152344 C 205.253906 133.078125 204.996094 133.007812 204.734375 132.933594 L 203.964844 132.71875 C 203.203125 132.441406 202.6875 132.097656 202.066406 131.582031 L 202.609375 131.507812 L 203.21875 131.292969 L 203.445312 130.753906 C 203.796875 130.136719 203.796875 130.136719 204.527344 129.707031 L 205.417969 129.308594 C 206.714844 128.691406 207.804688 128.042969 208.925781 127.152344 C 209.75 126.535156 210.613281 125.980469 211.484375 125.433594 L 212.425781 124.84375 C 213.234375 124.410156 213.84375 124.199219 214.746094 124.082031 L 215.035156 123.21875 C 215.609375 122.878906 215.609375 122.878906 216.347656 122.550781 C 217.304688 122.09375 218.148438 121.640625 218.976562 120.980469 C 219.988281 120.1875 221.058594 119.523438 222.164062 118.875 C 224.265625 117.636719 226.308594 116.316406 228.347656 114.976562 C 229.46875 114.242188 230.589844 113.519531 231.746094 112.835938 L 232.609375 112.238281 C 233.472656 111.679688 233.472656 111.679688 234.125 111.445312 C 235.164062 110.996094 236.007812 110.371094 236.914062 109.699219 C 240.390625 107.15625 240.390625 107.15625 241.738281 106.5625 C 243.058594 105.921875 244.175781 105.058594 245.347656 104.1875 C 246.53125 103.332031 247.773438 102.605469 249.03125 101.875 L 249.960938 101.320312 L 250.90625 100.757812 L 251.777344 100.238281 C 252.488281 99.855469 252.488281 99.855469 253.066406 99.855469 L 253.273438 99.328125 C 253.640625 98.703125 253.640625 98.703125 254.246094 98.296875 L 254.9375 97.945312 C 255.691406 97.5625 256.210938 97.285156 256.8125 96.683594 L 257.453125 96.433594 C 258.410156 96.042969 259.246094 95.519531 260.105469 94.953125 L 260.636719 94.613281 C 262.09375 93.65625 263.511719 92.648438 264.921875 91.628906 C 266.359375 90.589844 267.84375 89.632812 269.382812 88.753906 C 270.117188 88.3125 270.117188 88.3125 270.894531 87.601562 C 271.78125 86.835938 272.726562 86.460938 273.8125 86.015625 C 274.398438 85.644531 274.972656 85.257812 275.539062 84.859375 C 275.984375 84.550781 276.425781 84.246094 276.871094 83.941406 L 277.515625 83.496094 C 278.132812 83.128906 278.132812 83.128906 278.769531 82.988281 L 279.285156 82.84375 L 279.574219 81.976562 C 280.113281 81.597656 280.113281 81.597656 280.8125 81.214844 L 281.589844 80.785156 L 282.417969 80.335938 C 284.425781 79.21875 286.3125 78.085938 288.136719 76.691406 C 288.972656 76.078125 289.851562 75.597656 290.761719 75.113281 C 291.882812 74.492188 292.921875 73.757812 293.980469 73.035156 C 294.585938 72.632812 295.191406 72.230469 295.796875 71.828125 C 296.5625 71.320312 297.320312 70.820312 298.046875 70.261719 C 298.574219 69.875 299.078125 69.609375 299.671875 69.339844 C 300.78125 68.804688 301.722656 68.132812 302.691406 67.375 C 303.132812 67.03125 303.597656 66.714844 304.0625 66.402344 L 304.929688 66.402344 L 305.117188 65.875 C 305.503906 65.25 305.503906 65.25 306.214844 64.839844 L 307.089844 64.457031 C 308.324219 63.871094 309.34375 63.269531 310.386719 62.382812 C 311.730469 61.25 313.152344 60.460938 314.710938 59.65625 C 315.644531 59.164062 316.53125 58.628906 317.421875 58.054688 C 317.839844 57.785156 318.273438 57.53125 318.703125 57.28125 C 319.296875 56.910156 319.71875 56.523438 320.199219 56.019531 C 320.777344 55.734375 320.777344 55.734375 321.425781 55.625 " fill-opacity="1" fill-rule="nonzero"/></g><g clip-path="url(#4aef12eb09)"><path fill="#061735" d="M 295.421875 262.511719 L 295.996094 262.800781 L 295.992188 263.363281 C 295.976562 265.480469 295.980469 267.601562 295.996094 269.722656 L 296 270.476562 C 296.007812 271.109375 296.027344 271.738281 296.050781 272.371094 L 296.082031 273.429688 C 296.222656 274.382812 296.222656 274.382812 296.933594 275.121094 C 297.847656 275.878906 298.792969 276.5 299.800781 277.125 L 300.320312 277.507812 L 300.320312 278.085938 L 301.183594 278.085938 L 301.183594 278.660156 L 301.707031 278.789062 C 302.210938 278.917969 302.707031 279.074219 303.199219 279.238281 L 303.703125 279.761719 C 304.269531 280.308594 304.683594 280.601562 305.359375 280.96875 C 306.230469 281.441406 306.832031 281.984375 307.523438 282.699219 C 307.992188 283 308.472656 283.289062 308.960938 283.5625 L 309.738281 284.03125 C 310.144531 284.277344 310.558594 284.503906 310.980469 284.71875 L 310.980469 285.292969 L 311.449219 285.527344 L 312.132812 285.871094 L 312.921875 286.234375 C 314.132812 286.882812 315.140625 287.699219 316.207031 288.5625 C 317.199219 289.347656 318.175781 289.953125 319.335938 290.484375 L 319.335938 291.0625 L 319.910156 291.261719 C 321.046875 291.757812 322.039062 292.410156 323.082031 293.082031 C 323.429688 293.296875 323.777344 293.515625 324.125 293.730469 L 325.242188 294.433594 L 325.796875 294.777344 C 326.246094 295.0625 326.683594 295.367188 327.113281 295.675781 L 327.113281 296.253906 L 327.582031 296.308594 C 328.378906 296.582031 328.890625 297.03125 329.523438 297.578125 C 330.726562 298.609375 331.9375 299.496094 333.453125 300.003906 L 333.453125 300.578125 L 333.96875 300.679688 C 334.648438 300.878906 335.042969 301.128906 335.601562 301.558594 L 336.160156 301.980469 L 336.730469 302.417969 C 338 303.390625 339.203125 304.222656 340.65625 304.90625 C 341.082031 305.144531 341.5 305.390625 341.917969 305.644531 L 342.519531 306.003906 L 342.960938 306.347656 L 342.960938 306.925781 L 343.589844 307.140625 C 344.480469 307.535156 345.085938 308.042969 345.84375 308.65625 C 346.503906 309.0625 347.179688 309.433594 347.859375 309.808594 L 347.859375 310.382812 L 349.875 310.960938 L 349.875 311.828125 L 350.363281 311.917969 C 351.160156 312.152344 351.765625 312.539062 352.46875 312.980469 C 352.851562 313.175781 353.234375 313.371094 353.621094 313.558594 L 353.621094 314.132812 L 354.101562 314.21875 C 355.8125 314.734375 357.5625 315.972656 358.808594 317.25 L 359.382812 317.882812 L 360.25 318.460938 L 359.960938 319.324219 C 358.605469 318.734375 357.550781 317.949219 356.402344 317.03125 C 355.503906 316.335938 354.585938 315.683594 353.65625 315.035156 L 353.167969 314.691406 C 352.457031 314.199219 351.855469 313.832031 351.027344 313.558594 L 350.164062 312.691406 C 349.402344 312.199219 348.640625 311.789062 347.824219 311.394531 C 347.0625 310.996094 346.71875 310.6875 346.128906 310.097656 C 345.714844 309.789062 345.296875 309.488281 344.871094 309.195312 L 344.089844 308.65625 L 343.25 308.078125 L 342.398438 307.480469 C 340.417969 306.09375 338.402344 304.753906 336.359375 303.457031 C 335.347656 302.808594 334.367188 302.140625 333.414062 301.410156 C 332.503906 300.71875 331.578125 300.136719 330.570312 299.589844 C 329.285156 298.855469 328.234375 298.074219 327.15625 297.070312 C 325.59375 295.730469 323.792969 294.53125 321.929688 293.65625 L 321.929688 293.082031 L 321.15625 292.847656 C 320.238281 292.519531 319.535156 292.136719 318.722656 291.601562 L 317.902344 291.0625 L 317.03125 290.484375 L 316.085938 289.878906 L 315.15625 289.277344 L 314.300781 288.726562 C 313.574219 288.179688 313.574219 288.179688 313.125 287.574219 C 312.613281 286.898438 312.164062 286.699219 311.394531 286.359375 C 309.777344 285.589844 308.386719 284.617188 306.945312 283.5625 L 305.828125 282.789062 C 304.929688 282.121094 304.929688 282.121094 304.382812 281.554688 C 303.757812 280.949219 303.160156 280.566406 302.40625 280.140625 C 301.46875 279.59375 300.59375 279.03125 299.742188 278.355469 C 298.667969 277.515625 297.523438 276.945312 296.285156 276.375 L 295.707031 276.066406 C 295.371094 275.386719 295.386719 274.988281 295.386719 274.230469 L 295.386719 273.445312 L 295.390625 272.59375 L 295.394531 271.722656 C 295.394531 270.804688 295.398438 269.882812 295.402344 268.964844 C 295.402344 268.339844 295.40625 267.71875 295.40625 267.097656 C 295.410156 265.566406 295.414062 264.039062 295.421875 262.511719 M 330.285156 106.488281 L 331.4375 106.777344 C 331.160156 107.425781 330.914062 107.878906 330.398438 108.363281 L 329.816406 108.796875 L 329.117188 109.320312 L 328.265625 109.949219 C 327.902344 110.226562 327.535156 110.503906 327.171875 110.78125 C 325.257812 112.230469 323.335938 113.664062 321.355469 115.027344 C 320.949219 115.3125 320.550781 115.609375 320.160156 115.917969 L 319.621094 116.296875 L 319.046875 116.296875 L 319.046875 116.871094 C 318.574219 117.214844 318.574219 117.214844 317.949219 117.574219 C 317.136719 118.046875 316.527344 118.511719 315.878906 119.179688 C 315.382812 119.585938 314.886719 119.988281 314.382812 120.386719 L 313.597656 121.011719 L 312.996094 121.488281 L 311.84375 120.910156 L 312.417969 120.910156 L 312.582031 120.40625 C 313.03125 119.703125 313.304688 119.542969 314.023438 119.160156 C 314.347656 118.976562 314.675781 118.792969 315.011719 118.601562 L 315.300781 117.738281 C 315.683594 117.539062 316.066406 117.347656 316.453125 117.160156 L 316.957031 116.636719 C 317.511719 116.097656 317.945312 115.78125 318.597656 115.394531 C 319.9375 114.589844 321.144531 113.632812 322.367188 112.660156 C 323.085938 112.089844 323.644531 111.683594 324.519531 111.394531 L 325.207031 110.707031 C 325.910156 110 326.511719 109.53125 327.402344 109.085938 L 328.265625 109.085938 L 328.554688 108.21875 C 328.96875 107.734375 328.96875 107.734375 329.417969 107.355469 L 329.996094 107.355469 Z M 246.4375 157.246094 C 247.421875 157.375 248.371094 157.539062 249.320312 157.824219 C 249.8125 158.292969 250.292969 158.773438 250.761719 159.265625 C 251.617188 159.746094 252.488281 160.164062 253.371094 160.585938 C 254.050781 160.914062 254.710938 161.273438 255.351562 161.664062 C 256.199219 162.152344 256.199219 162.152344 256.992188 162.457031 L 257.675781 162.4375 C 258.4375 161.796875 258.4375 161.796875 259.117188 160.996094 C 259.730469 160.472656 259.730469 160.472656 260.269531 160.132812 L 261.132812 160.132812 L 261.421875 159.265625 C 262.015625 159.066406 262.015625 159.066406 262.574219 158.976562 L 262.574219 158.402344 L 263.4375 158.113281 L 264.015625 158.402344 C 263.839844 158.898438 263.839844 158.898438 263.4375 159.554688 C 262.863281 160.007812 262.269531 160.433594 261.65625 160.835938 C 260.59375 161.542969 259.554688 162.25 258.558594 163.050781 L 257.675781 163.59375 C 256.503906 163.570312 255.570312 163.195312 254.507812 162.726562 C 254.035156 162.414062 253.574219 162.089844 253.121094 161.753906 C 252.046875 160.980469 250.996094 160.371094 249.800781 159.8125 C 249.136719 159.457031 248.6875 158.941406 248.167969 158.402344 C 247.601562 158.09375 247.023438 157.804688 246.4375 157.535156 Z M 313.859375 60.058594 C 314.5625 60.132812 314.5625 60.132812 315.011719 60.347656 C 314.21875 60.953125 313.40625 61.535156 312.582031 62.097656 L 311.933594 62.539062 C 311.265625 62.941406 311.265625 62.941406 310.484375 63.210938 L 309.828125 63.519531 C 309.71875 63.902344 309.625 64.285156 309.539062 64.671875 C 309.035156 64.945312 309.035156 64.945312 308.421875 65.125 C 307.738281 65.328125 307.3125 65.460938 306.792969 65.957031 L 306.371094 66.402344 C 305.714844 66.839844 305.050781 67.1875 304.351562 67.558594 L 303.777344 67.558594 L 303.402344 68.085938 C 302.8125 68.835938 302.277344 69.101562 301.417969 69.503906 L 300.628906 69.878906 L 300.03125 70.152344 L 300.03125 69.289062 C 300.691406 68.71875 300.691406 68.71875 301.5625 68.117188 L 302.421875 67.511719 C 302.96875 67.140625 303.515625 66.769531 304.0625 66.402344 L 304.929688 66.402344 L 305.117188 65.875 C 305.503906 65.25 305.503906 65.25 306.214844 64.839844 L 307.089844 64.457031 C 308.648438 63.71875 309.878906 62.84375 311.195312 61.742188 C 312.050781 61.042969 312.851562 60.523438 313.859375 60.058594 M 212.441406 136.773438 L 213.015625 136.773438 L 213.015625 137.347656 L 213.777344 137.597656 C 216.234375 138.429688 218.367188 139.390625 220.460938 140.9375 C 221.203125 141.472656 221.988281 141.847656 222.8125 142.25 C 223.699219 142.796875 224.574219 143.351562 225.40625 143.980469 L 225.695312 144.558594 C 224.257812 144.375 222.921875 143.808594 221.660156 143.117188 L 221.371094 142.539062 C 220.808594 142.226562 220.230469 141.96875 219.644531 141.703125 C 219.066406 141.386719 219.066406 141.386719 218.664062 140.96875 C 218.179688 140.496094 217.761719 140.257812 217.152344 139.972656 L 216.542969 139.679688 C 216.125 139.484375 215.707031 139.289062 215.289062 139.09375 C 214.15625 138.546875 213.261719 138.050781 212.441406 137.058594 Z M 347.28125 100.144531 L 347.859375 100.144531 C 347.625 100.847656 347.625 100.847656 347.28125 101.585938 L 346.417969 101.875 L 346.417969 102.453125 C 346.039062 102.84375 345.65625 103.226562 345.265625 103.605469 L 344.671875 104.363281 C 344.113281 105.046875 344.113281 105.046875 343.25 105.625 L 342.574219 106.300781 C 341.820312 107.054688 341.039062 107.714844 340.207031 108.382812 C 339.4375 109 338.703125 109.59375 338.019531 110.300781 C 337.488281 110.816406 337.488281 110.816406 336.621094 111.105469 C 337.0625 110.023438 337.710938 109.429688 338.585938 108.671875 C 339.597656 107.789062 340.578125 106.871094 341.519531 105.914062 L 342.429688 105.003906 L 342.90625 104.523438 Z M 348.433594 93.800781 C 348.234375 94.324219 348.234375 94.324219 347.859375 94.953125 C 347.214844 95.394531 347.214844 95.394531 346.453125 95.800781 C 345.289062 96.464844 344.648438 97.066406 343.824219 98.125 C 342.558594 99.097656 341.292969 99.875 339.792969 100.433594 L 339.503906 99.570312 C 339.976562 99.269531 340.457031 98.980469 340.945312 98.703125 L 341.519531 98.703125 L 341.683594 98.035156 L 342.097656 97.261719 C 343.125 96.773438 343.125 96.773438 344.113281 96.394531 L 344.402344 95.820312 L 345.265625 95.820312 L 345.320312 95.296875 L 345.554688 94.667969 C 346.527344 93.910156 347.210938 93.695312 348.433594 93.800781 M 321.421875 55.625 C 322.214844 55.734375 322.214844 55.734375 323.0625 56.382812 L 323.496094 56.777344 C 324.171875 57.375 324.914062 57.839844 325.671875 58.328125 L 325.097656 58.90625 L 324.464844 58.515625 L 323.621094 58.023438 L 322.789062 57.523438 C 321.941406 57.109375 321.941406 57.109375 321.015625 57.226562 C 320.113281 57.488281 319.503906 57.925781 318.761719 58.5 C 317.6875 59.253906 316.484375 59.785156 315.300781 60.347656 C 315.378906 59.816406 315.378906 59.816406 315.589844 59.195312 C 316.070312 58.796875 316.070312 58.796875 316.667969 58.453125 L 317.300781 58.085938 L 317.894531 57.75 C 318.789062 57.234375 319.488281 56.765625 320.199219 56.019531 C 320.777344 55.734375 320.777344 55.734375 321.421875 55.625 M 287.066406 139.65625 L 288.21875 140.230469 C 287.199219 141.308594 286.128906 142.191406 284.902344 143.027344 L 284.417969 143.367188 C 283.507812 143.992188 282.632812 144.480469 281.589844 144.847656 L 281.589844 143.691406 C 282.34375 142.976562 282.90625 142.582031 283.894531 142.25 L 284.398438 141.746094 C 285.21875 140.925781 286.109375 140.316406 287.066406 139.65625 M 280.148438 144.847656 C 280.628906 144.835938 281.109375 144.835938 281.589844 144.847656 C 281.3125 145.5 281.070312 145.949219 280.542969 146.429688 L 279.988281 146.828125 L 279.375 147.269531 C 278.296875 148.015625 277.210938 148.746094 276.117188 149.460938 L 275.25 148.882812 C 275.628906 148.453125 275.628906 148.453125 276.117188 148.019531 L 276.980469 148.019531 L 277.269531 147.152344 L 278.132812 147.152344 L 278.132812 146.289062 C 278.980469 145.675781 278.980469 145.675781 279.863281 145.136719 Z M 336.621094 101.585938 C 337.269531 101.660156 337.269531 101.660156 337.773438 101.875 L 337.773438 102.453125 C 337.207031 102.847656 336.628906 103.234375 336.046875 103.605469 C 335.246094 104.210938 334.558594 104.808594 333.867188 105.535156 C 333.164062 106.203125 333.164062 106.203125 332.5 106.4375 L 332.011719 106.488281 L 331.722656 105.335938 L 332.625 104.851562 C 333.949219 104.089844 335.058594 103.199219 336.082031 102.054688 Z M 270.929688 152.054688 C 271.558594 152.148438 271.558594 152.148438 272.082031 152.34375 L 272.082031 152.921875 L 271.253906 153.136719 L 270.355469 153.5 C 270.050781 154.03125 270.050781 154.03125 269.777344 154.652344 C 269.234375 155.238281 268.714844 155.628906 268.046875 156.09375 C 267.363281 156.039062 267.363281 156.039062 266.894531 155.804688 C 267.207031 155.011719 267.511719 154.617188 268.15625 154.039062 C 268.785156 153.589844 269.378906 153.265625 270.066406 152.921875 L 270.496094 152.433594 Z M 307.808594 124.949219 L 307.808594 125.523438 C 307.332031 125.898438 307.332031 125.898438 306.675781 126.316406 L 305.964844 126.773438 L 305.214844 127.253906 C 304.730469 127.578125 304.242188 127.902344 303.757812 128.226562 L 302.625 128.984375 L 302.625 127.832031 C 303.089844 127.21875 303.089844 127.21875 303.777344 126.679688 L 305.503906 126.101562 L 305.792969 125.234375 C 306.503906 124.878906 307.027344 124.925781 307.808594 124.949219 M 353.621094 89.761719 L 354.199219 90.050781 L 354.199219 90.628906 L 353.371094 90.917969 C 351.8125 91.574219 350.578125 92.714844 349.300781 93.800781 L 348.148438 93.222656 L 348.722656 93.222656 L 348.945312 92.695312 C 349.453125 91.800781 350.113281 91.476562 350.980469 90.96875 C 351.847656 90.496094 352.691406 90.097656 353.621094 89.761719 M 59.734375 118.3125 L 60.597656 118.601562 L 60.597656 119.179688 L 61.210938 119.378906 C 62.253906 119.855469 62.929688 120.417969 63.769531 121.199219 L 63.769531 121.773438 L 64.535156 121.988281 C 65.558594 122.375 66.210938 122.839844 67.046875 123.542969 L 67.808594 124.175781 L 68.378906 124.660156 L 68.089844 125.234375 L 67.6875 124.929688 C 66.339844 123.90625 64.964844 122.929688 63.566406 121.980469 C 62.894531 121.480469 62.339844 120.925781 61.75 120.332031 L 60.832031 119.738281 L 60.023438 119.179688 Z M 291.386719 136.195312 L 292.25 136.773438 C 291.964844 137.460938 291.734375 137.875 291.15625 138.351562 L 290.558594 138.71875 L 289.964844 139.09375 C 289.371094 139.367188 289.371094 139.367188 288.21875 139.367188 C 288.453125 138.808594 288.453125 138.808594 288.792969 138.214844 L 289.65625 137.925781 C 290.148438 137.457031 290.628906 136.976562 291.097656 136.484375 Z M 123.699219 167.339844 L 125.714844 168.496094 L 125.714844 169.070312 L 126.183594 169.289062 C 127.421875 169.941406 128.476562 170.683594 129.460938 171.667969 C 130.03125 172.058594 130.605469 172.445312 131.1875 172.820312 L 130.902344 173.398438 C 129.351562 172.417969 127.9375 171.382812 126.578125 170.148438 C 125.796875 169.46875 124.964844 168.875 124.121094 168.28125 L 123.699219 167.917969 Z M 274.386719 149.460938 L 275.539062 149.460938 C 275.394531 150.09375 275.394531 150.09375 274.964844 150.902344 C 274.25 151.488281 273.511719 151.988281 272.660156 152.34375 L 271.792969 152.054688 L 271.792969 151.480469 C 272.320312 150.980469 272.320312 150.980469 273.019531 150.433594 L 273.707031 149.882812 Z M 52.242188 112.546875 C 53.996094 113.164062 55.265625 114.128906 56.566406 115.429688 L 57.285156 115.863281 C 58.03125 116.3125 58.566406 116.8125 59.15625 117.449219 L 58.871094 118.027344 C 55.5 115.53125 55.5 115.53125 54.261719 114.4375 C 53.5625 113.84375 53.050781 113.5 52.242188 113.125 Z M 177.867188 208.871094 C 178.554688 209.175781 179.085938 209.503906 179.675781 209.980469 C 180.464844 210.605469 181.277344 211.144531 182.132812 211.683594 L 182.984375 212.21875 L 183.628906 212.621094 L 183.050781 213.195312 C 179.332031 210.792969 179.332031 210.792969 177.867188 209.445312 Z M 116.78125 162.4375 C 118.96875 163.667969 121.132812 164.941406 123.121094 166.476562 L 123.121094 167.054688 C 122.003906 166.535156 120.984375 165.867188 119.953125 165.195312 L 119.414062 164.851562 C 117.429688 163.570312 117.429688 163.570312 116.78125 163.015625 Z M 116.78125 162.4375 " fill-opacity="1" fill-rule="nonzero"/></g><path fill="#061836" d="M 221.660156 190.125 L 222.523438 190.125 C 222.347656 190.617188 222.347656 190.617188 221.949219 191.277344 C 221.378906 191.757812 220.789062 192.214844 220.183594 192.648438 L 219.691406 193.007812 C 219.292969 193.296875 218.894531 193.585938 218.492188 193.875 L 217.914062 193.296875 L 219.066406 192.71875 L 219.066406 192.144531 L 220.585938 191.328125 C 221.171875 190.976562 221.171875 190.976562 221.660156 190.125 " fill-opacity="1" fill-rule="nonzero"/><path fill="#061735" d="M 45.902344 107.644531 C 47.339844 108.390625 48.472656 109.242188 49.667969 110.332031 C 50.390625 110.960938 51.144531 111.464844 51.953125 111.96875 L 51.667969 112.546875 C 47.53125 109.730469 47.53125 109.730469 45.902344 108.21875 Z M 45.902344 107.644531 " fill-opacity="1" fill-rule="nonzero"/><path fill="#061836" d="M 190.542969 214.0625 L 191.40625 214.0625 L 191.121094 214.925781 C 190.574219 215.398438 190.574219 215.398438 189.894531 215.863281 L 189.222656 216.335938 L 188.527344 216.65625 C 187.71875 216.5625 187.71875 216.5625 187.085938 216.367188 L 186.796875 215.503906 L 187.410156 215.71875 L 188.238281 215.792969 C 189.121094 215.289062 189.824219 214.78125 190.542969 214.0625 " fill-opacity="1" fill-rule="nonzero"/><g clip-path="url(#6c0b8cae8d)"><path fill="#061735" d="M 152.796875 189.546875 C 154.382812 190.34375 155.453125 191.011719 156.542969 192.429688 C 157.195312 192.871094 157.859375 193.222656 158.5625 193.585938 L 158.273438 194.160156 C 157.84375 193.894531 157.417969 193.625 156.996094 193.351562 L 156.273438 192.894531 L 155.679688 192.429688 L 155.390625 191.566406 C 154.917969 191.363281 154.4375 191.167969 153.949219 190.988281 C 153.285156 190.558594 153.285156 190.558594 152.796875 190.125 Z M 334.027344 65.25 C 335.128906 65.648438 336.039062 66.15625 337 66.816406 L 337.769531 67.339844 L 338.351562 67.84375 L 338.351562 68.710938 L 337.855469 68.371094 C 336.511719 67.464844 335.160156 66.613281 333.742188 65.828125 Z M 96.324219 146 L 97.171875 146.757812 C 98.199219 147.644531 99.289062 148.371094 100.441406 149.085938 L 100.9375 149.460938 L 100.9375 150.039062 C 99.769531 149.621094 98.832031 149.058594 97.820312 148.34375 L 96.96875 147.75 L 96.324219 147.152344 Z M 356.214844 81.6875 C 356.882812 81.777344 356.882812 81.777344 357.65625 81.976562 C 358.085938 82.375 358.085938 82.375 358.519531 82.84375 L 359.277344 83.292969 L 359.960938 83.707031 L 360.25 84.285156 L 358.230469 83.707031 L 358.230469 83.128906 L 356.792969 82.84375 L 356.792969 82.265625 L 356.214844 82.265625 Z M 166.628906 200.21875 L 167.203125 200.21875 L 168.070312 201.082031 C 168.804688 201.550781 169.558594 201.976562 170.320312 202.398438 L 170.949219 202.8125 L 170.949219 203.390625 L 171.816406 203.679688 L 171.816406 204.253906 C 170.980469 203.875 170.363281 203.453125 169.691406 202.832031 C 169.011719 202.230469 168.5 201.875 167.671875 201.460938 L 166.917969 201.082031 Z M 298.878906 130.714844 C 299.527344 130.804688 299.527344 130.804688 300.03125 131.003906 C 299.851562 131.542969 299.851562 131.542969 299.453125 132.15625 C 298.554688 132.519531 298.554688 132.519531 297.726562 132.734375 L 297.726562 131.582031 C 298.230469 131.058594 298.230469 131.058594 298.878906 130.714844 M 353.332031 92.9375 L 353.910156 93.222656 C 353.542969 93.8125 353.15625 94.390625 352.757812 94.953125 L 352.179688 94.953125 L 351.894531 96.109375 L 351.316406 96.109375 L 351.316406 96.683594 L 350.742188 96.683594 C 351.167969 95.359375 351.820312 94.519531 352.757812 93.511719 L 353.332031 93.511719 Z M 353.332031 92.9375 " fill-opacity="1" fill-rule="nonzero"/></g><path fill="#061836" d="M 349.011719 76.207031 C 350.039062 76.585938 350.914062 77.039062 351.820312 77.652344 L 352.5 78.101562 C 353.046875 78.515625 353.046875 78.515625 353.332031 79.09375 C 352.328125 78.773438 351.382812 78.441406 350.453125 77.9375 L 350.453125 77.363281 L 349.011719 76.785156 Z M 349.011719 76.207031 " fill-opacity="1" fill-rule="nonzero"/><path fill="#061735" d="M 265.742188 156.09375 C 266.375 156.203125 266.375 156.203125 266.894531 156.382812 L 266.609375 157.246094 C 265.921875 157.753906 265.921875 157.753906 265.167969 158.113281 L 264.304688 157.824219 C 264.539062 157.285156 264.539062 157.285156 264.878906 156.671875 Z M 295.996094 132.734375 C 296.933594 132.660156 296.933594 132.660156 297.726562 132.734375 L 297.4375 133.597656 C 296.410156 134.085938 296.410156 134.085938 295.421875 134.464844 L 294.84375 133.886719 C 295.3125 133.3125 295.3125 133.3125 295.996094 132.734375 M 104.96875 153.210938 C 106.582031 154.179688 108.09375 155.230469 109.578125 156.382812 C 108.714844 156.382812 108.714844 156.382812 107.957031 155.980469 L 107.113281 155.445312 L 106.265625 154.917969 C 105.546875 154.363281 105.546875 154.363281 105.160156 153.71875 Z M 237.507812 151.769531 L 240.964844 153.5 L 240.964844 154.074219 L 242.117188 154.363281 L 241.253906 154.652344 C 240.664062 154.285156 240.085938 153.902344 239.523438 153.5 C 238.859375 153.101562 238.183594 152.722656 237.507812 152.34375 Z M 293.691406 134.464844 C 294.339844 134.535156 294.339844 134.535156 294.84375 134.753906 C 294.628906 135.3125 294.628906 135.3125 294.269531 135.90625 C 293.691406 136.160156 293.691406 136.160156 293.117188 136.195312 L 292.539062 135.617188 C 293.042969 135.023438 293.042969 135.023438 293.691406 134.464844 M 172.679688 204.542969 L 173.542969 204.832031 L 173.542969 205.410156 L 174.011719 205.609375 C 174.921875 206.109375 175.636719 206.746094 176.425781 207.429688 L 175.558594 207.714844 C 174.992188 207.3125 174.992188 207.3125 174.390625 206.742188 C 173.597656 205.984375 173.597656 205.984375 172.679688 205.410156 Z M 345.265625 73.324219 L 346.417969 73.902344 L 346.417969 74.476562 L 346.957031 74.585938 C 347.570312 74.765625 347.570312 74.765625 348.148438 75.34375 L 347.28125 75.632812 L 346.707031 75.34375 L 346.707031 74.765625 L 346.167969 74.675781 L 345.554688 74.476562 L 344.976562 73.613281 Z M 145.019531 183.492188 L 145.882812 184.066406 L 145.882812 184.644531 L 146.371094 184.734375 C 147.164062 184.972656 147.78125 185.355469 148.476562 185.796875 L 147.902344 186.375 C 147.417969 186.117188 146.9375 185.851562 146.460938 185.582031 L 145.648438 185.136719 L 145.019531 184.644531 Z M 74.714844 129.851562 L 75.871094 130.136719 L 75.871094 130.714844 L 76.410156 130.984375 L 77.597656 131.582031 L 77.597656 132.15625 L 78.460938 132.445312 L 77.886719 132.734375 C 77.355469 132.363281 76.828125 131.992188 76.300781 131.617188 C 76.007812 131.410156 75.714844 131.203125 75.410156 130.988281 L 74.714844 130.425781 Z M 341.230469 70.441406 C 342.417969 70.859375 343.394531 71.417969 344.402344 72.171875 L 344.691406 73.035156 L 344.113281 73.035156 L 343.824219 72.460938 C 343.351562 72.25 342.871094 72.058594 342.386719 71.882812 L 342.386719 71.304688 L 341.230469 71.019531 Z M 38.699219 303.464844 L 38.699219 304.039062 C 38.070312 304.476562 38.070312 304.476562 37.261719 304.941406 L 36.449219 305.414062 L 35.820312 305.769531 L 35.820312 304.90625 C 36.230469 304.503906 36.230469 304.503906 36.773438 304.128906 L 37.3125 303.75 C 37.835938 303.464844 37.835938 303.464844 38.699219 303.464844 " fill-opacity="1" fill-rule="nonzero"/><path fill="#071836" d="M 53.972656 292.214844 L 54.835938 292.214844 L 54.835938 292.792969 C 54.269531 293.226562 54.269531 293.226562 53.539062 293.695312 L 52.808594 294.164062 L 52.242188 294.523438 L 51.667969 293.945312 L 52.820312 293.082031 L 53.414062 292.59375 Z M 53.972656 292.214844 " fill-opacity="1" fill-rule="nonzero"/><path fill="#061735" d="M 202.355469 131.292969 C 203.574219 131.667969 204.699219 132.109375 205.8125 132.734375 L 206.101562 133.3125 C 205.644531 133.1875 205.1875 133.0625 204.734375 132.933594 L 203.964844 132.71875 C 203.203125 132.441406 202.6875 132.097656 202.066406 131.582031 Z M 28.90625 94.667969 L 29.769531 94.953125 L 29.769531 95.53125 L 30.5625 95.710938 C 31.496094 96.109375 31.496094 96.109375 32.183594 97.007812 L 32.652344 97.839844 C 31.65625 97.398438 30.894531 96.796875 30.058594 96.109375 L 29.390625 95.640625 L 28.90625 95.242188 Z M 326.25 59.480469 C 327.402344 59.660156 328.21875 60.21875 329.132812 60.925781 L 329.132812 61.789062 L 327.691406 60.925781 L 326.878906 60.472656 L 326.25 60.058594 Z M 238.371094 177.433594 L 239.234375 177.433594 L 238.949219 178.300781 C 238.414062 178.699219 238.414062 178.699219 237.777344 179.074219 C 237.566406 179.203125 237.355469 179.328125 237.136719 179.457031 L 236.644531 179.742188 L 236.644531 178.878906 C 237.453125 178.101562 237.453125 178.101562 238.371094 177.433594 M 101.222656 150.039062 C 101.765625 150.09375 101.765625 150.09375 102.375 150.324219 L 102.648438 151.046875 L 102.953125 151.769531 C 103.6875 152.027344 103.6875 152.027344 104.394531 152.054688 L 104.394531 152.632812 C 103.3125 152.355469 102.6875 152.078125 101.835938 151.335938 L 101.222656 150.613281 Z M 338.640625 100.144531 L 339.792969 100.433594 L 339.503906 101.300781 C 338.621094 101.640625 338.621094 101.640625 337.773438 101.875 L 337.773438 101.011719 L 338.351562 101.011719 Z M 136.085938 176.859375 L 137.238281 177.433594 L 137.871094 177.707031 L 138.390625 178.011719 L 138.679688 178.878906 C 138.03125 178.804688 138.03125 178.804688 137.238281 178.589844 C 136.574219 178.03125 136.574219 178.03125 136.085938 177.433594 Z M 226.269531 144.847656 C 226.699219 145.121094 227.125 145.398438 227.550781 145.675781 L 228.269531 146.140625 C 228.863281 146.578125 228.863281 146.578125 229.152344 147.152344 C 228.039062 146.824219 227.117188 146.527344 226.269531 145.710938 Z M 86.53125 139.078125 C 87.679688 139.472656 88.511719 139.984375 89.410156 140.808594 L 89.699219 141.675781 C 88.859375 141.296875 88.304688 140.90625 87.683594 140.230469 L 87.050781 139.601562 Z M 353.621094 79.667969 C 354.433594 79.886719 354.433594 79.886719 355.351562 80.246094 C 355.890625 80.859375 355.890625 80.859375 356.214844 81.398438 L 354.773438 81.113281 L 354.773438 80.535156 L 353.332031 80.246094 Z M 23.140625 313.84375 C 22.960938 314.40625 22.960938 314.40625 22.566406 315 C 21.664062 315.214844 21.664062 315.214844 20.835938 315.289062 C 22.230469 313.84375 22.230469 313.84375 23.140625 313.84375 " fill-opacity="1" fill-rule="nonzero"/><path fill="#061836" d="M 311.265625 121.773438 L 311.84375 121.773438 C 311.644531 122.296875 311.644531 122.296875 311.265625 122.929688 C 310.511719 123.433594 310.511719 123.433594 309.828125 123.792969 L 309.539062 123.21875 C 310.832031 122.089844 310.832031 122.089844 311.265625 121.773438 " fill-opacity="1" fill-rule="nonzero"/><path fill="#061735" d="M 331.4375 63.519531 C 332.410156 63.675781 332.898438 63.824219 333.742188 64.382812 L 333.742188 64.960938 C 332.914062 64.726562 332.914062 64.726562 332.011719 64.382812 Z M 204.660156 203.390625 L 205.238281 203.390625 C 205.019531 203.929688 205.019531 203.929688 204.660156 204.542969 C 204.046875 204.90625 204.046875 204.90625 203.507812 205.121094 L 203.507812 204.253906 C 204.046875 203.769531 204.046875 203.769531 204.660156 203.390625 M 208.40625 200.507812 L 209.269531 200.507812 L 208.984375 201.371094 C 208.246094 201.714844 208.246094 201.714844 207.542969 201.949219 L 207.542969 201.082031 Z M 228 186.085938 L 227.710938 186.953125 C 226.972656 187.4375 226.972656 187.4375 226.269531 187.816406 L 225.980469 186.953125 C 227.351562 186.085938 227.351562 186.085938 228 186.085938 " fill-opacity="1" fill-rule="nonzero"/><path fill="#061836" d="M 48.496094 295.964844 L 49.648438 295.964844 L 49.648438 296.542969 L 47.632812 297.40625 L 47.632812 296.542969 Z M 48.496094 295.964844 " fill-opacity="1" fill-rule="nonzero"/><path fill="#061735" d="M 350.164062 96.683594 L 350.742188 96.683594 C 350.59375 97.308594 350.453125 97.839844 350.164062 98.414062 L 349.300781 98.125 C 349.695312 97.40625 349.695312 97.40625 350.164062 96.683594 " fill-opacity="1" fill-rule="nonzero"/></svg>